<svg xmlns="http://www.w3.org/2000/svg" xmlns:xlink="http://www.w3.org/1999/xlink" width="500" zoomAndPan="magnify" viewBox="0 0 375 374.999991" height="500" preserveAspectRatio="xMidYMid meet" version="1.0"><defs><g/></defs><path fill="#ffffff" d="M 143.964844 212.890625 L 145.613281 214.511719 L 145.777344 214.675781 C 150.902344 219.960938 150.847656 228.46875 145.613281 233.679688 C 140.375 238.886719 131.828125 238.941406 126.519531 233.84375 L 126.355469 233.679688 L 124.707031 232.054688 L 120.222656 227.574219 C 114.929688 222.308594 114.929688 213.691406 120.222656 208.410156 C 125.511719 203.144531 134.1875 203.144531 139.480469 208.410156 Z M 234.796875 138.738281 L 236.390625 137.152344 L 238.222656 135.332031 L 255.007812 118.625 C 260.300781 113.359375 260.300781 104.742188 255.007812 99.457031 C 249.699219 94.191406 241.042969 94.191406 235.75 99.457031 L 218.964844 116.164062 L 217.132812 117.988281 L 215.539062 119.574219 L 205.910156 129.15625 C 200.621094 134.421875 200.621094 143.039062 205.910156 148.320312 L 215.539062 157.90625 L 217.261719 159.597656 L 235.878906 178.128906 C 241.167969 183.394531 249.828125 183.394531 255.136719 178.128906 C 260.425781 172.863281 260.425781 164.226562 255.136719 158.960938 L 236.519531 140.433594 Z M 120.992188 99.585938 L 120.992188 99.566406 C 126.28125 94.300781 134.957031 94.300781 140.25 99.566406 L 254.878906 213.671875 C 260.1875 218.9375 260.1875 227.574219 254.878906 232.839844 C 249.589844 238.105469 240.929688 238.105469 235.621094 232.839844 L 120.992188 118.734375 C 115.699219 113.46875 115.699219 104.851562 120.992188 99.585938 Z M 120.824219 154.207031 C 126.117188 148.941406 134.773438 148.941406 140.082031 154.207031 L 153.136719 167.195312 L 181.382812 195.308594 L 200 213.835938 C 205.289062 219.101562 205.289062 227.738281 200 233.003906 C 194.691406 238.269531 186.03125 238.269531 180.742188 233.003906 L 162.125 214.476562 L 133.878906 186.363281 L 120.824219 173.375 C 115.535156 168.109375 115.535156 159.472656 120.824219 154.207031 Z M 120.824219 154.207031 " fill-opacity="1" fill-rule="evenodd"/><g fill="#ffffff" fill-opacity="1"><g transform="translate(116.88421, 273.535128)"><g><path d="M 1.671875 0 L 1.671875 -17.28125 L 4.84375 -17.28125 L 4.84375 -2.46875 L 12.484375 -2.46875 L 12.484375 0 Z M 1.671875 0 "/></g></g></g><g fill="#ffffff" fill-opacity="1"><g transform="translate(134.310181, 273.535128)"><g><path d="M 1.671875 0 L 1.671875 -17.28125 L 4.84375 -17.28125 L 4.84375 0 Z M 1.671875 0 "/></g></g></g><g fill="#ffffff" fill-opacity="1"><g transform="translate(144.653194, 273.535128)"><g><path d="M 1.671875 0 L 1.671875 -17.28125 L 4.84375 -17.28125 L 12.96875 -5.109375 L 12.96875 -17.28125 L 16.125 -17.28125 L 16.125 0 L 12.96875 0 L 4.84375 -12.140625 L 4.84375 0 Z M 1.671875 0 "/></g></g></g><g fill="#ffffff" fill-opacity="1"><g transform="translate(166.274636, 273.535128)"><g><path d="M 1.671875 0 L 1.671875 -17.28125 L 12.96875 -17.28125 L 12.96875 -14.734375 L 4.84375 -14.734375 L 4.84375 -10 L 12.21875 -10 L 12.21875 -7.53125 L 4.84375 -7.53125 L 4.84375 -2.546875 L 12.96875 -2.546875 L 12.96875 0 Z M 1.671875 0 "/></g></g></g><g fill="#ffffff" fill-opacity="1"><g transform="translate(184.365211, 273.535128)"><g><path d="M 5.875 0 L 5.875 -15.578125 L 0.71875 -15.578125 L 0.71875 -17.28125 L 13.109375 -17.28125 L 13.109375 -15.578125 L 7.953125 -15.578125 L 7.953125 0 Z M 5.875 0 "/></g></g></g><g fill="#ffffff" fill-opacity="1"><g transform="translate(202.013288, 273.535128)"><g><path d="M 1.828125 0 L 1.828125 -17.28125 L 12.515625 -17.28125 L 12.515625 -15.578125 L 3.90625 -15.578125 L 3.90625 -9.546875 L 11.78125 -9.546875 L 11.78125 -7.875 L 3.90625 -7.875 L 3.90625 -1.703125 L 12.515625 -1.703125 L 12.515625 0 Z M 1.828125 0 "/></g></g></g><g fill="#ffffff" fill-opacity="1"><g transform="translate(219.760087, 273.535128)"><g><path d="M 9.40625 0.296875 C 7.707031 0.296875 6.242188 -0.078125 5.015625 -0.828125 C 3.796875 -1.578125 2.847656 -2.617188 2.171875 -3.953125 C 1.492188 -5.296875 1.15625 -6.859375 1.15625 -8.640625 C 1.15625 -10.398438 1.492188 -11.953125 2.171875 -13.296875 C 2.847656 -14.640625 3.796875 -15.6875 5.015625 -16.4375 C 6.242188 -17.195312 7.707031 -17.578125 9.40625 -17.578125 C 11.382812 -17.578125 12.992188 -17.101562 14.234375 -16.15625 C 15.472656 -15.207031 16.265625 -13.890625 16.609375 -12.203125 L 14.3125 -12.203125 C 14.050781 -13.265625 13.515625 -14.117188 12.703125 -14.765625 C 11.890625 -15.421875 10.789062 -15.75 9.40625 -15.75 C 8.164062 -15.75 7.085938 -15.460938 6.171875 -14.890625 C 5.253906 -14.328125 4.539062 -13.515625 4.03125 -12.453125 C 3.53125 -11.390625 3.28125 -10.117188 3.28125 -8.640625 C 3.28125 -7.160156 3.53125 -5.890625 4.03125 -4.828125 C 4.539062 -3.765625 5.253906 -2.945312 6.171875 -2.375 C 7.085938 -1.8125 8.164062 -1.53125 9.40625 -1.53125 C 10.789062 -1.53125 11.890625 -1.847656 12.703125 -2.484375 C 13.515625 -3.117188 14.050781 -3.960938 14.3125 -5.015625 L 16.609375 -5.015625 C 16.265625 -3.347656 15.472656 -2.046875 14.234375 -1.109375 C 12.992188 -0.171875 11.382812 0.296875 9.40625 0.296875 Z M 9.40625 0.296875 "/></g></g></g><g fill="#ffffff" fill-opacity="1"><g transform="translate(241.356853, 273.535128)"><g><path d="M 1.828125 0 L 1.828125 -17.28125 L 3.90625 -17.28125 L 3.90625 -9.65625 L 12.859375 -9.65625 L 12.859375 -17.28125 L 14.9375 -17.28125 L 14.9375 0 L 12.859375 0 L 12.859375 -7.953125 L 3.90625 -7.953125 L 3.90625 0 Z M 1.828125 0 "/></g></g></g></svg>