<svg xmlns="http://www.w3.org/2000/svg" xmlns:xlink="http://www.w3.org/1999/xlink" zoomAndPan="magnify" preserveAspectRatio="xMidYMid meet" version="1.0" viewBox="116.25 95.5 142.88 142.13"><path fill="#436436" d="M 143.964844 212.890625 L 145.613281 214.511719 L 145.777344 214.675781 C 150.902344 219.960938 150.847656 228.46875 145.613281 233.679688 C 140.375 238.890625 131.828125 238.941406 126.519531 233.84375 L 126.355469 233.679688 L 124.707031 232.054688 L 120.222656 227.574219 C 114.929688 222.308594 114.929688 213.691406 120.222656 208.410156 C 125.511719 203.144531 134.1875 203.144531 139.480469 208.410156 Z M 234.796875 138.738281 L 236.390625 137.152344 L 238.222656 135.332031 L 255.007812 118.625 C 260.300781 113.359375 260.300781 104.742188 255.007812 99.457031 C 249.699219 94.191406 241.042969 94.191406 235.75 99.457031 L 218.964844 116.164062 L 217.132812 117.988281 L 215.539062 119.574219 L 205.910156 129.15625 C 200.621094 134.421875 200.621094 143.039062 205.910156 148.320312 L 215.539062 157.90625 L 217.261719 159.597656 L 235.878906 178.128906 C 241.167969 183.394531 249.828125 183.394531 255.136719 178.128906 C 260.425781 172.863281 260.425781 164.226562 255.136719 158.960938 L 236.519531 140.433594 Z M 120.992188 99.585938 L 120.992188 99.566406 C 126.28125 94.300781 134.957031 94.300781 140.25 99.566406 L 254.878906 213.671875 C 260.1875 218.9375 260.1875 227.574219 254.878906 232.839844 C 249.589844 238.105469 240.929688 238.105469 235.621094 232.839844 L 120.992188 118.734375 C 115.699219 113.46875 115.699219 104.851562 120.992188 99.585938 Z M 120.824219 154.207031 C 126.117188 148.941406 134.773438 148.941406 140.082031 154.207031 L 153.136719 167.195312 L 181.382812 195.308594 L 200 213.835938 C 205.289062 219.101562 205.289062 227.738281 200 233.003906 C 194.691406 238.269531 186.03125 238.269531 180.742188 233.003906 L 162.125 214.476562 L 133.878906 186.363281 L 120.824219 173.375 C 115.535156 168.109375 115.535156 159.472656 120.824219 154.207031 Z M 120.824219 154.207031 " fill-opacity="1" fill-rule="evenodd"/></svg>